# xmcd CD database file
#
# Track frame offsets:
#	150
#	18797
#	37815
#	54325
#	71132
#	89410
#	109992
#	129372
#	148962
#	167002
#	183790
#	200750
#	218785
#	235082
#	251012
#	269200
#	286827
#	301550
#
# Disc length: 4262 seconds
#
# Revision: 0
# Processed by: cddbd v1.5.2PL0 Copyright (c) Steve Scherf et al.
# Submitted via: CDex 1.70beta3
#
DISCID=0310a412
DTITLE=Various Artist - Boogie Woogie and Piano Classics
DYEAR=1900
DGENRE=Jazz
TTITLE0=Melancholy - Meade Lux Lewis
TTITLE1=Solitude - Meade Lux Lewis
TTITLE2=Boogie Woogie Stomp - Albert Ammons
TTITLE3=Boogie Woogie Blues - Albert Ammons
TTITLE4=Chicago In Mind - Albert Ammons
TTITLE5=Twos And Fews - Albert Ammons and Meade Lux Lewis
TTITLE6=The Father's Getaway - Earl Hines
TTITLE7=Reminiscing At Blue Note - Earl Hines
TTITLE8=Barrelhouse Breakdown - Pete Johnson Blues Trio
TTITLE9=Vine Street Bustle - Pete Johnson Blues Trio
TTITLE10=J. P. Boogie - James P. Johnson
TTITLE11=Backwater Blues - James P. Johnson
TTITLE12=Carolina Balmoral - James P. Johnson
TTITLE13=Gut Stomp - James P. Johnson
TTITLE14=Mule Walk - James P. Johnson
TTITLE15=Arkansas Blues - James P. Johnson
TTITLE16=Caprice Rag - James P. Johnson
TTITLE17=Improvisations On Pinetop's Boogie Woogie - James P. Johnson
EXTD=
EXTT0=
EXTT1=
EXTT2=
EXTT3=
EXTT4=
EXTT5=
EXTT6=
EXTT7=
EXTT8=
EXTT9=
EXTT10=
EXTT11=
EXTT12=
EXTT13=
EXTT14=
EXTT15=
EXTT16=
EXTT17=
PLAYORDER=
